<?xml version="1.0" standalone="no"?>
<!DOCTYPE svg PUBLIC "-//W3C//DTD SVG 20010904//EN"
 "http://www.w3.org/TR/2001/REC-SVG-20010904/DTD/svg10.dtd">
<svg version="1.0" xmlns="http://www.w3.org/2000/svg"
 width="120.000000pt" height="120.000000pt" viewBox="0 0 120.000000 120.000000"
 preserveAspectRatio="xMidYMid meet">
<metadata>
Created by potrace 1.13, written by Peter Selinger 2001-2015
</metadata>
<g transform="translate(0.000000,120.000000) scale(0.100000,-0.100000)"
fill="#000000" stroke="none">
<path d="M170 1077 c0 -23 26 -77 86 -183 48 -82 105 -183 129 -224 205 -362
360 -617 353 -585 -1 6 6 24 15 40 59 104 226 458 221 467 -5 7 -2 8 6 3 10
-6 12 -4 7 9 -4 9 -3 15 1 12 5 -3 19 16 31 42 l23 46 -34 27 c-41 35 -801
379 -834 379 -2 0 -4 -15 -4 -33z"/>
</g>
</svg>
