<?xml version="1.0" standalone="no"?>
<!DOCTYPE svg PUBLIC "-//W3C//DTD SVG 20010904//EN"
 "http://www.w3.org/TR/2001/REC-SVG-20010904/DTD/svg10.dtd">
<svg version="1.0" xmlns="http://www.w3.org/2000/svg"
 width="120.000000pt" height="120.000000pt" viewBox="0 0 120.000000 120.000000"
 preserveAspectRatio="xMidYMid meet">
<metadata>
Created by potrace 1.13, written by Peter Selinger 2001-2015
</metadata>
<g transform="translate(0.000000,120.000000) scale(0.100000,-0.100000)"
fill="#000000" stroke="none">
<path d="M446 994 c-42 -74 -353 -766 -360 -801 -6 -27 -4 -33 9 -33 22 0 21
-1 554 303 403 229 471 271 455 280 -21 12 -626 297 -630 297 -1 0 -14 -21
-28 -46z m346 -117 c158 -73 287 -136 287 -142 0 -8 -259 -161 -523 -309 -28
-15 -128 -73 -223 -127 -168 -97 -260 -144 -236 -119 6 7 9 19 6 28 -4 10 -2
13 5 8 7 -4 12 -5 12 -2 0 2 3 13 6 23 5 15 4 15 -5 3 -6 -8 -11 -10 -10 -5 0
14 38 82 39 70 0 -13 20 16 20 30 0 6 -5 3 -10 -5 -15 -24 -12 -4 7 34 9 19
21 32 26 29 6 -4 8 0 4 10 -7 19 12 69 23 62 10 -6 22 24 14 36 -3 5 0 9 6 9
6 0 8 5 5 10 -3 6 -2 10 4 10 6 0 7 7 4 17 -5 12 -3 14 7 8 10 -6 12 -4 7 8
-3 10 -2 17 4 17 6 0 7 5 4 10 -3 6 -1 10 6 10 7 0 10 3 6 6 -3 4 1 13 9 21 8
9 13 22 10 29 -3 8 -1 14 5 14 6 0 7 5 4 10 -3 6 -1 10 5 10 6 0 8 5 5 10 -3
6 -2 10 3 10 6 0 14 12 20 28 5 15 35 85 67 155 46 101 61 127 74 122 9 -3
145 -65 303 -138z"/>
</g>
</svg>
