<?xml version="1.0" standalone="no"?>
<!DOCTYPE svg PUBLIC "-//W3C//DTD SVG 20010904//EN"
 "http://www.w3.org/TR/2001/REC-SVG-20010904/DTD/svg10.dtd">
<svg version="1.0" xmlns="http://www.w3.org/2000/svg"
 width="300.000000pt" height="300.000000pt" viewBox="0 0 300.000000 300.000000"
 preserveAspectRatio="xMidYMid meet">
<metadata>
Created by potrace 1.13, written by Peter Selinger 2001-2015
</metadata>
<g transform="translate(0.000000,300.000000) scale(0.100000,-0.100000)"
fill="#000000" stroke="none">
<path d="M913 2508 c-27 -35 -295 -630 -287 -637 9 -8 749 -338 808 -361 l30
-11 -55 -33 c-30 -18 -253 -146 -497 -285 -244 -140 -440 -257 -435 -262 4 -4
147 -75 318 -158 252 -123 312 -149 322 -138 7 7 91 179 187 382 95 204 181
387 192 408 l18 38 14 -28 c18 -35 193 -341 277 -483 34 -58 103 -177 153
-265 85 -147 136 -225 130 -200 -1 6 6 24 15 40 59 104 226 458 221 467 -5 7
-2 8 6 3 10 -6 12 -4 7 9 -4 9 -3 15 1 12 5 -3 19 16 31 42 l23 46 -34 27
c-32 27 -737 351 -790 365 -32 7 -36 19 -11 28 9 4 235 131 501 283 412 234
482 277 466 286 -21 12 -626 297 -630 297 -11 0 -368 -770 -384 -830 l-6 -24
-15 29 c-8 17 -84 149 -169 295 -84 146 -202 351 -263 455 -124 214 -129 222
-144 203z m1299 -291 c158 -73 287 -136 287 -142 0 -8 -259 -161 -523 -309
-28 -15 -128 -73 -223 -127 -168 -97 -260 -144 -236 -119 6 7 9 19 6 28 -4 10
-2 13 5 8 7 -4 12 -5 12 -2 0 2 3 13 6 23 5 15 4 15 -5 3 -6 -8 -11 -10 -10
-5 0 14 38 82 39 70 0 -13 20 16 20 30 0 6 -5 3 -10 -5 -15 -24 -12 -4 7 34 9
19 21 32 26 29 6 -4 8 0 4 10 -7 19 12 69 23 62 10 -6 22 24 14 36 -3 5 0 9 6
9 6 0 8 5 5 10 -3 6 -2 10 4 10 6 0 7 7 4 17 -5 12 -3 14 7 8 10 -6 12 -4 7 8
-3 10 -2 17 4 17 6 0 7 5 4 10 -3 6 -1 10 6 10 7 0 10 3 6 6 -3 4 1 13 9 21 8
9 13 22 10 29 -3 8 -1 14 5 14 6 0 7 5 4 10 -3 6 -1 10 5 10 6 0 8 5 5 10 -3
6 -2 10 3 10 6 0 14 12 20 28 5 15 35 85 67 155 46 101 61 127 74 122 9 -3
145 -65 303 -138z m-708 -735 c-6 -4 -15 -18 -19 -32 -9 -29 -224 -506 -310
-687 -32 -68 -62 -123 -68 -123 -15 0 -580 261 -595 275 -14 13 62 59 623 377
340 193 349 198 365 198 10 0 11 -3 4 -8z"/>
</g>
</svg>
