<?xml version="1.0" encoding="utf-8"?>
<!-- Generator: Adobe Illustrator 19.1.0, SVG Export Plug-In . SVG Version: 6.00 Build 0)  -->
<svg version="1.0" xmlns="http://www.w3.org/2000/svg" xmlns:xlink="http://www.w3.org/1999/xlink" x="0px" y="0px"
	 viewBox="-5 97 600 600" enable-background="new -5 97 600 600" xml:space="preserve">
<g id="playstation" display="none">
	<g id="XMLID_1_" display="inline">
		<g>
			<path fill="#FFFFFF" d="M200.8,540.1v35.5c-67.1,19.2-141.8-0.9-138.9-35.5c0,0,0-46.4,138.9-72.3v39.8l-67.1,21.2
				c-13.2,20.7,4.8,19.1,4.8,19.1C175.1,549.5,200.8,540.1,200.8,540.1z"/>
		</g>
		<g>
			<path fill="none" stroke="#000000" stroke-width="0.5" stroke-linecap="round" stroke-linejoin="round" d="M133.8,528.9
				c-13.2,20.7,4.8,19.1,4.8,19.1c36.6,1.6,62.3-7.8,62.3-7.8v35.5c-67.1,19.2-141.8-0.9-138.9-35.5c0,0,0-46.4,138.9-72.3v39.8
				L133.8,528.9z"/>
		</g>
	</g>
	<g id="XMLID_2_" display="inline">
		<g>
			<path fill="#FFFFFF" d="M524.1,518.8c0,6.7-5.9,16.5-15.1,22.3l-183,69.6v-36l131.5-50.3l-36.2-16.8l-95.2,23.5v-34.9
				c0,0,43.8-18.9,77.7-18.9C403.8,477.3,494.2,479.6,524.1,518.8z"/>
		</g>
		<g>
			<path fill="none" stroke="#000000" stroke-width="0.5" stroke-linecap="round" stroke-linejoin="round" d="M524.1,518.8
				c-29.9-39.1-120.3-41.5-120.3-41.5c-33.9,0-77.7,18.9-77.7,18.9v34.9l95.2-23.5l36.2,16.8l-131.5,50.3v36l183-69.6
				C518.2,535.2,524.1,525.5,524.1,518.8z"/>
		</g>
	</g>
	<g id="XMLID_3_" display="inline">
		<g>
			<path fill="#FFFFFF" d="M400,350.5c17.5,61.5-5.2,100.7-22.4,106.6c-31.5,6.9-51.6-18.5-51.6-18.5v-93.8l-28.5-13.2V621
				l-68.4-40.5l-1.1-0.7V248.8C279,260.8,389.4,303.2,400,350.5z"/>
		</g>
		<g>
			<path fill="none" stroke="#000000" stroke-width="0.5" stroke-linecap="round" stroke-linejoin="round" d="M229.1,580.5
				l68.4,40.5V331.6l28.5,13.2v93.8c0,0,20.1,25.4,51.6,18.5c17.2-5.8,39.9-45.1,22.4-106.6c-10.6-47.3-121-89.7-172-101.7v330.9"/>
		</g>
	</g>
</g>
<g id="图层_2">
	
		<line fill="none" stroke="#000000" stroke-width="0.5" stroke-linecap="round" stroke-linejoin="round" x1="326.1" y1="496.1" x2="326.1" y2="438.6"/>
	<g id="XMLID_4_">
		<g>
			<path d="M200.8,575.6V697H35c-22,0-40-18-40-40V137c0-22,18-40,40-40h165.8v370.8C60.8,494.8,61.9,540.1,61.9,540.1
				C64.8,590.8,168.5,586.5,200.8,575.6z"/>
		</g>
		<g>
			<path fill="none" stroke="#000000" stroke-width="0.5" stroke-linecap="round" stroke-linejoin="round" d="M200.8,97v370.8
				C60.8,494.8,61.9,540.1,61.9,540.1c2.9,50.7,106.6,46.4,138.9,35.5V697H35c-22,0-40-18-40-40V137c0-22,18-40,40-40H200.8z"/>
		</g>
	</g>
	<g id="XMLID_5_">
		<g>
			<path d="M297.5,621l-1.5,76h-95.2V540.1c-31.7,10.2-62.3,7.8-62.3,7.8c-17.8,0-4.8-19.1-4.8-19.1l67.1-21.2V97H228v482.8
				L297.5,621z"/>
		</g>
		<g>
		</g>
	</g>
	<g id="XMLID_6_">
		<g>
			<polygon points="457.5,524.4 326.1,574.7 326.1,697 296,697 297.5,331.6 326.1,344.8 326.1,531.1 421.3,507.6 			"/>
		</g>
		<g>
		</g>
	</g>
	<g id="XMLID_7_">
		<g>
			<path d="M595,137v520c0,22-18,40-40,40H326.1v-86.3l183-69.6c16-11.2,15.1-22.3,15.1-22.3c-28.6-38.1-120.3-41.5-120.3-41.5
				c-26.1-1.8-77.7,18.9-77.7,18.9v-57.5c31.9,29.2,51.6,18.5,51.6,18.5C425.1,425,400,350.5,400,350.5
				c-7.9-56.5-172-101.7-172-101.7V97h327C577,97,595,115,595,137z"/>
		</g>
		<g>
		</g>
	</g>
</g>
</svg>
