<?xml version="1.0" ?>
<svg height="600px" version="1.1" viewBox="0 0 60 60" width="600px" author="dtysky@outlook.com" xmlns="http://www.w3.org/2000/svg" xmlns:sketch="http://www.bohemiancoding.com/sketch/ns" xmlns:xlink="http://www.w3.org/1999/xlink">
	<g fill="#000000" id="icon">
		<path d="
			M0.0,56.0
			C0.0,56.0
			0.0,60.0
			4.0,60.0
			L22.117488,60.0
			22.117488,41.568942
			22.117488,47.227182
			C22.117488,47.227182
			21.632715,47.915571
			17.772173,47.868429
			C13.911631,47.821286
			10.49458,46.699714
			10.538888,44.270571
			C10.582785,41.840571
			15.727696,39.370529
			22.117488,38.248958
			L22.117488,0.0
			4.0,0.0
			C4.0,0.0
			0.0,0.0
			0.0,4.0
			Z
			M22.117488,41.568942
			L16.529087,43.335429
			C16.529087,43.335429
			15.367232,44.879143
			16.92909,44.924143
			C20.478655,45.027857
			22.117488,44.270571
			22.117488,44.270571
			Z
			M32.553936,47.154476
			L43.508982,42.962143
			L40.491933,41.560286
			32.553936,43.518451
			Z
			M60.0,56.0
			C60.0,56.0
			60.0,60.0
			56.0,60.0
			L32.553936,60.0
			32.553936,50.154476
			C32.553936,50.154476
			45.151661,45.952286
			47.104086,44.223857
			C47.104086,44.223857
			49.056921,42.495
			49.056921,42.495
			L60.0,42.495
			Z
			M22.117488,60.0
			L32.553936,60.0
			32.553936,50.154476
			30.175255,51.013522
			24.384334,47.579731
			22.117488,47.227182
			Z
			M22.117488,47.227182
			L22.117488,0.0
			24.384334,0.0
			24.384334,47.579731
			Z
			M30.175255,51.013522
			L30.175255,26.893461
			32.553936,27.993361
			32.553936,50.154476
			Z
			M24.384334,0.0
			L24.384334,20.0
			C24.384334,20.0
			37.031395,23.149714
			38.717151,28.476429
			C40.403728,33.803571
			37.775605,37.254
			36.854162,37.355143
			C34.279784,37.635429
			33.682711,35.814641
			32.553936,35.814641
			L32.553936,40.607497
			C32.553936,40.607497
			35.929962,39.068068
			39.028128,39.036857
			C39.028128,39.036857
			42.533385,38.196429
			49.056921,42.495
			L60.0,42.495
			60.0,4.0
			C60.0,4.0
			60.0,0.0
			56.0,0.0
			Z
			"
			id="playstation"/>
	</g>
</svg>